<svg xmlns="http://www.w3.org/2000/svg" viewBox="0 0 24 24" fill="currentColor" class="w-6 h-6">
  <path color="#2563eb" d="M12 2.25c-5.385 0-9.75 4.365-9.75 9.75s4.365 9.75 9.75 9.75 9.75-4.365 9.75-9.75S17.385 2.25 12 2.25Zm0 2.25a.75.75 0 0 1 .75.75v.567a3 3 0 0 1 1.075.523c.324.243.61.543.836.894a.75.75 0 1 1-1.285.772 1.5 1.5 0 0 0-.418-.447 1.5 1.5 0 0 0-.538-.262V8.25a.75.75 0 0 1-.75-.75ZM9.75 7.5a.75.75 0 0 1 .75.75v2.25a.75.75 0 0 1-1.5 0V8.25a.75.75 0 0 1 .75-.75Zm0 5.25a.75.75 0 0 1 .75.75v3a.75.75 0 0 1-1.5 0v-3a.75.75 0 0 1 .75-.75Zm3.75-3.75a.75.75 0 0 1 .75.75v2.25a.75.75 0 0 1-1.5 0V9.75a.75.75 0 0 1 .75-.75Zm0 5.25a.75.75 0 0 1 .75.75v3a.75.75 0 0 1-1.5 0v-3a.75.75 0 0 1 .75-.75Z" />
  <path color="#2563eb" d="M12 12.75a3 3 0 1 0 0-6 3 3 0 0 0 0 6Z" />
</svg>